<svg width="20" height="20" viewBox="0 0 20 20" fill="none" xmlns="http://www.w3.org/2000/svg">
<path d="M16.3827 8.08432L10.5494 2.98016C10.2352 2.70524 9.76609 2.70524 9.4519 2.98016L3.61856 8.08432C3.43772 8.24256 3.33398 8.47117 3.33398 8.71147V15.8333C3.33398 16.2936 3.70708 16.6667 4.16732 16.6667H7.50065C7.96089 16.6667 8.33398 16.2936 8.33398 15.8333V12.5C8.33398 12.0398 8.70708 11.6667 9.16732 11.6667H10.834C11.2942 11.6667 11.6673 12.0398 11.6673 12.5V15.8333C11.6673 16.2936 12.0404 16.6667 12.5007 16.6667H15.834C16.2942 16.6667 16.6673 16.2936 16.6673 15.8333V8.71147C16.6673 8.47117 16.5636 8.24256 16.3827 8.08432Z" stroke="#232222" stroke-width="2" stroke-linecap="round" stroke-linejoin="round"/>
</svg>
