<svg width="103" height="60" viewBox="0 0 103 60" fill="none" xmlns="http://www.w3.org/2000/svg">
<path d="M9.67882 29.2445V20.7494C9.67882 20.0986 9.55362 19.5343 9.30323 19.0564C9.06246 18.5684 8.6965 18.1922 8.20533 17.9278C7.71417 17.6635 7.10743 17.5313 6.38513 17.5313C5.71099 17.5313 5.1187 17.6533 4.60828 17.8973C4.10748 18.1413 3.71262 18.4616 3.4237 18.8582C3.14441 19.2547 3.00477 19.6818 3.00477 20.1393H0.332258C0.332258 19.5496 0.476718 18.9649 0.765638 18.3854C1.05456 17.8058 1.46868 17.2822 2.00799 16.8145C2.55694 16.3366 3.21183 15.9604 3.97265 15.6858C4.7431 15.4011 5.60023 15.2588 6.54404 15.2588C7.68046 15.2588 8.68205 15.4621 9.54881 15.8689C10.4252 16.2756 11.109 16.8907 11.6001 17.7143C12.1009 18.5277 12.3513 19.5496 12.3513 20.7799V28.4667C12.3513 29.0157 12.3947 29.6004 12.4813 30.2206C12.5777 30.8408 12.7173 31.3746 12.9003 31.822V32.0661H10.1122C9.97737 31.7407 9.87144 31.3086 9.79439 30.7697C9.71735 30.2206 9.67882 29.7122 9.67882 29.2445ZM10.1411 22.061L10.17 24.0437H7.46858C6.70776 24.0437 6.0288 24.1098 5.4317 24.242C4.8346 24.364 4.3338 24.5521 3.92931 24.8063C3.52483 25.0605 3.21664 25.3808 3.00477 25.7671C2.79289 26.1433 2.68696 26.5856 2.68696 27.094C2.68696 27.6126 2.79771 28.0854 3.01921 28.5124C3.24072 28.9395 3.57298 29.2801 4.01599 29.5343C4.46863 29.7783 5.02239 29.9003 5.67728 29.9003C6.49589 29.9003 7.21819 29.7173 7.84418 29.3513C8.47017 28.9852 8.96615 28.5379 9.33212 28.0091C9.70772 27.4804 9.90996 26.9669 9.93885 26.4687L11.0801 27.8261C11.0127 28.2532 10.8297 28.726 10.5311 29.2445C10.2326 29.7631 9.83291 30.2613 9.33212 30.7392C8.84095 31.2069 8.25348 31.5983 7.56971 31.9135C6.89556 32.2186 6.13474 32.3711 5.28724 32.3711C4.22786 32.3711 3.2985 32.1525 2.49916 31.7153C1.70944 31.2781 1.09308 30.6934 0.65007 29.9613C0.21669 29.2191 0 28.3904 0 27.4753C0 26.5907 0.163721 25.8129 0.491164 25.1418C0.818607 24.4606 1.29051 23.8963 1.90687 23.4489C2.52324 22.9914 3.2648 22.6456 4.13156 22.4118C4.99832 22.1779 5.9662 22.061 7.0352 22.061H10.1411Z" fill="black"/>
<path d="M39.394 32.3711C38.3058 32.3711 37.3186 32.1779 36.4326 31.7915C35.5562 31.395 34.8002 30.8408 34.1646 30.1291C33.5386 29.4174 33.057 28.5734 32.72 27.5973C32.3829 26.6212 32.2144 25.5536 32.2144 24.3945V23.7539C32.2144 22.4118 32.4022 21.2171 32.7777 20.1698C33.1533 19.1124 33.6638 18.2176 34.309 17.4855C34.9543 16.7534 35.6862 16.1993 36.5048 15.8231C37.3234 15.4469 38.1709 15.2588 39.0473 15.2588C40.1645 15.2588 41.1275 15.4621 41.9365 15.8689C42.7551 16.2756 43.4245 16.845 43.9445 17.577C44.4646 18.2989 44.8498 19.153 45.1002 20.1393C45.3506 21.1154 45.4758 22.183 45.4758 23.3421V24.608H33.8034V22.305H42.8033V22.0915C42.7648 21.3594 42.6203 20.6477 42.3699 19.9563C42.1291 19.2649 41.7439 18.6955 41.2142 18.2481C40.6845 17.8007 39.9622 17.577 39.0473 17.577C38.4406 17.577 37.882 17.7143 37.3716 17.9888C36.8612 18.2532 36.423 18.6497 36.057 19.1785C35.691 19.7072 35.4069 20.3528 35.2047 21.1154C35.0024 21.878 34.9013 22.7575 34.9013 23.7539V24.3945C34.9013 25.1774 35.0024 25.9146 35.2047 26.606C35.4166 27.2872 35.7199 27.8871 36.1148 28.4057C36.5193 28.9242 37.0056 29.3309 37.5738 29.6258C38.1517 29.9207 38.8065 30.0681 39.5385 30.0681C40.4823 30.0681 41.2816 29.8647 41.9365 29.458C42.5914 29.0513 43.1644 28.5073 43.6556 27.8261L45.2735 29.1835C44.9365 29.7224 44.5079 30.2359 43.9878 30.7239C43.4678 31.212 42.8274 31.6085 42.0665 31.9135C41.3153 32.2186 40.4245 32.3711 39.394 32.3711Z" fill="black"/>
<path d="M56.4116 32.3711C55.3233 32.3711 54.3362 32.1779 53.4502 31.7915C52.5738 31.395 51.8178 30.8408 51.1821 30.1291C50.5562 29.4174 50.0746 28.5734 49.7375 27.5973C49.4005 26.6212 49.2319 25.5536 49.2319 24.3945V23.7539C49.2319 22.4118 49.4197 21.2171 49.7953 20.1698C50.1709 19.1124 50.6813 18.2176 51.3266 17.4855C51.9719 16.7534 52.7038 16.1993 53.5224 15.8231C54.341 15.4469 55.1885 15.2588 56.0649 15.2588C57.182 15.2588 58.1451 15.4621 58.9541 15.8689C59.7727 16.2756 60.442 16.845 60.9621 17.577C61.4821 18.2989 61.8674 19.153 62.1178 20.1393C62.3682 21.1154 62.4934 22.183 62.4934 23.3421V24.608H50.821V22.305H59.8209V22.0915C59.7823 21.3594 59.6379 20.6477 59.3875 19.9563C59.1467 19.2649 58.7615 18.6955 58.2318 18.2481C57.7021 17.8007 56.9798 17.577 56.0649 17.577C55.4582 17.577 54.8996 17.7143 54.3892 17.9888C53.8787 18.2532 53.4405 18.6497 53.0746 19.1785C52.7086 19.7072 52.4245 20.3528 52.2223 21.1154C52.02 21.878 51.9189 22.7575 51.9189 23.7539V24.3945C51.9189 25.1774 52.02 25.9146 52.2223 26.606C52.4341 27.2872 52.7375 27.8871 53.1324 28.4057C53.5368 28.9242 54.0232 29.3309 54.5914 29.6258C55.1692 29.9207 55.8241 30.0681 56.5561 30.0681C57.4999 30.0681 58.2992 29.8647 58.9541 29.458C59.609 29.0513 60.182 28.5073 60.6732 27.8261L62.2911 29.1835C61.954 29.7224 61.5255 30.2359 61.0054 30.7239C60.4854 31.212 59.8449 31.6085 59.0841 31.9135C58.3329 32.2186 57.4421 32.3711 56.4116 32.3711Z" fill="black"/>
<path d="M68.8927 9.49121V32.3789H66.2588V9.49121H68.8927Z" fill="black"/>
<path d="M72.5356 23.998V23.6472C72.5356 22.4575 72.6994 21.3543 73.0268 20.3376C73.3543 19.3106 73.8262 18.421 74.4425 17.6685C75.0589 16.906 75.8053 16.3162 76.6816 15.8994C77.558 15.4723 78.5404 15.2588 79.6286 15.2588C80.7265 15.2588 81.7137 15.4723 82.5901 15.8994C83.4761 16.3162 84.2273 16.906 84.8436 17.6685C85.4696 18.421 85.9464 19.3106 86.2738 20.3376C86.6012 21.3543 86.765 22.4575 86.765 23.6472V23.998C86.765 25.1876 86.6012 26.2908 86.2738 27.3076C85.9464 28.3243 85.4696 29.214 84.8436 29.9766C84.2273 30.729 83.4809 31.3187 82.6045 31.7458C81.7377 32.1626 80.7554 32.3711 79.6575 32.3711C78.5596 32.3711 77.5725 32.1626 76.6961 31.7458C75.8197 31.3187 75.0685 30.729 74.4425 29.9766C73.8262 29.214 73.3543 28.3243 73.0268 27.3076C72.6994 26.2908 72.5356 25.1876 72.5356 23.998ZM75.2082 23.6472V23.998C75.2082 24.8215 75.2996 25.5994 75.4826 26.3315C75.6656 27.0534 75.9401 27.6939 76.3061 28.2532C76.6816 28.8124 77.1487 29.2547 77.7073 29.58C78.2659 29.8952 78.916 30.0528 79.6575 30.0528C80.3895 30.0528 81.0299 29.8952 81.5788 29.58C82.1374 29.2547 82.5997 28.8124 82.9657 28.2532C83.3316 27.6939 83.6061 27.0534 83.7891 26.3315C83.9817 25.5994 84.078 24.8215 84.078 23.998V23.6472C84.078 22.8338 83.9817 22.0661 83.7891 21.3442C83.6061 20.6121 83.3268 19.9665 82.9512 19.4072C82.5852 18.8378 82.123 18.3905 81.5644 18.0651C81.0154 17.7397 80.3702 17.577 79.6286 17.577C78.8967 17.577 78.2514 17.7397 77.6929 18.0651C77.1439 18.3905 76.6816 18.8378 76.3061 19.4072C75.9401 19.9665 75.6656 20.6121 75.4826 21.3442C75.2996 22.0661 75.2082 22.8338 75.2082 23.6472Z" fill="black"/>
<path d="M93.1229 19.1564V32.3711H90.4019V15.5694H92.9758L93.1229 19.1564ZM92.4757 23.3336L91.3432 23.287C91.353 22.1379 91.5148 21.0768 91.8285 20.1037C92.1423 19.1202 92.5836 18.2661 93.1523 17.5415C93.721 16.8168 94.3976 16.2578 95.182 15.8644C95.9763 15.4607 96.8538 15.2588 97.8148 15.2588C98.5992 15.2588 99.3052 15.3727 99.9328 15.6004C100.56 15.8178 101.095 16.1698 101.536 16.6563C101.987 17.1429 102.33 17.7744 102.566 18.5508C102.801 19.3169 102.919 20.2538 102.919 21.3615V32.3711H100.183V21.3304C100.183 20.4505 100.06 19.7465 99.8151 19.2185C99.57 18.6802 99.2121 18.292 98.7414 18.0539C98.2707 17.8054 97.6922 17.6812 97.0058 17.6812C96.3293 17.6812 95.7115 17.8313 95.1526 18.1315C94.6035 18.4318 94.1279 18.8458 93.7259 19.3738C93.3337 19.9018 93.0248 20.5074 92.7993 21.1906C92.5836 21.8635 92.4757 22.5778 92.4757 23.3336Z" fill="black"/>
<path d="M22.2869 22.6176L11.5894 12.2647L22.2869 32.5L39.6704 0.5L22.2869 22.6176Z" fill="#DE3B38"/>
<path d="M72.4702 55.5V46.7727H74.1009V48.1932H74.2088C74.3906 47.7121 74.688 47.3371 75.1009 47.0682C75.5137 46.7955 76.008 46.6591 76.5838 46.6591C77.1671 46.6591 77.6558 46.7955 78.0497 47.0682C78.4474 47.3409 78.741 47.7159 78.9304 48.1932H79.0213C79.2296 47.7273 79.5611 47.3561 80.0156 47.0795C80.4702 46.7992 81.0118 46.6591 81.6406 46.6591C82.4323 46.6591 83.0781 46.9072 83.5781 47.4034C84.0819 47.8996 84.3338 48.6477 84.3338 49.6477V55.5H82.6349V49.8068C82.6349 49.2159 82.474 48.7879 82.152 48.5227C81.83 48.2576 81.4455 48.125 80.9986 48.125C80.4455 48.125 80.0156 48.2955 79.7088 48.6364C79.402 48.9735 79.2486 49.4072 79.2486 49.9375V55.5H77.5554V49.6989C77.5554 49.2254 77.4077 48.8447 77.1122 48.5568C76.8168 48.2689 76.4323 48.125 75.9588 48.125C75.6368 48.125 75.3395 48.2102 75.0668 48.3807C74.7978 48.5473 74.58 48.7803 74.4134 49.0795C74.2505 49.3788 74.169 49.7254 74.169 50.1193V55.5H72.4702ZM86.6108 55.5V46.7727H88.3097V55.5H86.6108ZM87.4688 45.4261C87.1733 45.4261 86.9195 45.3277 86.7074 45.1307C86.4991 44.9299 86.3949 44.6913 86.3949 44.4148C86.3949 44.1345 86.4991 43.8958 86.7074 43.6989C86.9195 43.4981 87.1733 43.3977 87.4688 43.3977C87.7642 43.3977 88.0161 43.4981 88.2244 43.6989C88.4366 43.8958 88.5426 44.1345 88.5426 44.4148C88.5426 44.6913 88.4366 44.9299 88.2244 45.1307C88.0161 45.3277 87.7642 45.4261 87.4688 45.4261ZM92.294 50.3182V55.5H90.5952V46.7727H92.2259V48.1932H92.3338C92.5346 47.7311 92.849 47.3598 93.277 47.0795C93.7088 46.7992 94.2524 46.6591 94.9077 46.6591C95.5024 46.6591 96.0232 46.7841 96.4702 47.0341C96.9171 47.2803 97.2637 47.6477 97.5099 48.1364C97.7562 48.625 97.8793 49.2292 97.8793 49.9489V55.5H96.1804V50.1534C96.1804 49.5208 96.0156 49.0265 95.6861 48.6705C95.3565 48.3106 94.9039 48.1307 94.3281 48.1307C93.9342 48.1307 93.5838 48.2159 93.277 48.3864C92.974 48.5568 92.7334 48.8068 92.5554 49.1364C92.3812 49.4621 92.294 49.8561 92.294 50.3182ZM100.158 55.5V46.7727H101.857V55.5H100.158ZM101.016 45.4261C100.72 45.4261 100.466 45.3277 100.254 45.1307C100.046 44.9299 99.9418 44.6913 99.9418 44.4148C99.9418 44.1345 100.046 43.8958 100.254 43.6989C100.466 43.4981 100.72 43.3977 101.016 43.3977C101.311 43.3977 101.563 43.4981 101.771 43.6989C101.983 43.8958 102.089 44.1345 102.089 44.4148C102.089 44.6913 101.983 44.9299 101.771 45.1307C101.563 45.3277 101.311 45.4261 101.016 45.4261Z" fill="black"/>
</svg>
